<?xml version="1.0" standalone="no"?>
<!DOCTYPE svg PUBLIC "-//W3C//DTD SVG 20010904//EN"
 "http://www.w3.org/TR/2001/REC-SVG-20010904/DTD/svg10.dtd">
<svg version="1.0" xmlns="http://www.w3.org/2000/svg"
 width="600.000000pt" height="527.000000pt" viewBox="0 0 600.000000 527.000000"
 preserveAspectRatio="xMidYMid meet">
<g transform="translate(0.000000,527.000000) scale(0.100000,-0.100000)"
fill="#000000" stroke="none">
<path d="M2160 3259 c0 -5 3 -9 8 -9 4 -1 21 -12 37 -26 l30 -26 -62 6 c-163
15 8 -36 210 -64 44 -5 86 -14 95 -19 15 -8 14 -11 -8 -19 -14 -6 -44 -18 -68
-27 l-43 -18 -33 32 c-17 17 -37 31 -43 31 -24 0 -62 -68 -83 -149 -38 -141
-109 -208 -299 -282 -151 -58 -337 -135 -561 -231 -107 -47 -240 -102 -295
-123 -55 -21 -103 -41 -108 -45 -4 -3 61 4 145 16 178 27 438 57 444 52 3 -4
-68 -18 -311 -63 -263 -49 -350 -67 -430 -86 -83 -21 -285 -83 -320 -98 -11
-5 -45 -19 -75 -31 -153 -62 -390 -192 -390 -215 0 -18 107 11 410 113 129 43
269 89 310 101 199 57 253 71 257 67 7 -7 -447 -184 -607 -237 -143 -48 -144
-49 -90 -49 91 0 289 27 395 55 180 46 367 127 559 243 48 29 90 51 92 49 12
-12 -165 -131 -300 -202 -112 -58 -111 -64 4 -40 111 23 211 60 374 138 l149
71 93 -11 c52 -5 97 -13 101 -16 3 -4 10 -62 15 -128 11 -140 10 -142 -74
-173 -27 -10 -48 -22 -48 -27 0 -5 76 -9 176 -9 136 0 175 3 172 13 -3 6 -24
18 -49 25 -105 30 -94 16 -97 124 l-3 97 48 35 c26 20 50 36 53 36 6 0 55 -81
113 -185 l38 -70 -35 -31 c-20 -17 -36 -34 -36 -38 0 -3 79 -6 175 -6 116 0
175 4 175 11 0 15 -64 39 -108 39 -55 0 -86 28 -133 122 -38 75 -39 81 -25
103 9 13 60 47 113 74 225 116 334 280 320 481 -3 41 -19 123 -37 183 -19 65
-30 117 -26 132 9 37 58 57 127 53 33 -2 59 -1 59 2 0 10 -85 77 -149 118 -98
64 -351 158 -351 131z m136 -636 c33 -115 -15 -207 -143 -271 -106 -54 -250
-83 -395 -81 l-83 2 115 13 c132 15 183 26 260 56 70 28 96 43 143 87 59 55
81 104 81 184 0 37 1 67 3 67 1 0 10 -26 19 -57z"/>
<path d="M2840 2370 l0 -290 75 0 74 0 3 136 3 136 165 -136 165 -136 92 0
c51 0 93 3 93 8 0 4 -13 16 -28 27 -65 47 -322 268 -320 275 3 6 108 92 299
242 l34 27 -90 0 -90 1 -162 -130 -163 -130 0 130 0 130 -75 0 -75 0 0 -290z"/>
<path d="M3854 2628 c-9 -18 -29 -55 -44 -83 -15 -27 -57 -108 -95 -180 -37
-71 -85 -162 -106 -201 -22 -39 -39 -74 -39 -78 0 -3 35 -6 78 -6 l79 0 29 56
c16 31 33 58 37 61 6 4 296 7 343 4 6 -1 23 -28 39 -61 l29 -60 83 0 84 0 -62
118 c-34 64 -65 122 -69 127 -4 6 -31 55 -60 110 -29 55 -68 128 -87 163 l-35
62 -94 0 -93 0 -17 -32z m170 -204 c31 -58 56 -109 56 -115 0 -5 -49 -9 -115
-9 -73 0 -115 4 -115 10 0 16 104 220 112 220 3 0 31 -47 62 -106z"/>
<path d="M4490 2370 l0 -290 259 0 c239 0 260 1 265 18 3 9 4 26 1 37 -2 11
-4 28 -4 37 -1 16 -19 18 -183 20 l-183 3 -3 233 -2 232 -75 0 -75 0 0 -290z"/>
<path d="M5150 2370 l0 -290 75 0 75 0 0 290 0 290 -75 0 -75 0 0 -290z"/>
<path d="M5738 2449 l-3 -212 -28 -21 c-25 -18 -45 -21 -158 -25 l-129 -3 0
-54 0 -54 159 0 c91 0 172 5 192 11 47 16 97 66 109 109 5 19 10 131 10 248
l0 212 -75 0 -75 0 -2 -211z"/>
</g>
</svg>
